<?xml version="1.0" encoding="utf-8"?>
<!-- Generator: Adobe Illustrator 24.1.2, SVG Export Plug-In . SVG Version: 6.00 Build 0)  -->
<svg version="1.1" id="Capa_1" xmlns="http://www.w3.org/2000/svg" xmlns:xlink="http://www.w3.org/1999/xlink" x="0px" y="0px"
	 viewBox="0 0 486.7 486.7" style="enable-background:new 0 0 486.7 486.7;" xml:space="preserve">
<style type="text/css">
	.st0{fill:#FFFFFF;}
</style>
<g>
	<path d="M403.9,196.6h-9.5v-44.4C394.4,70.1,329.2,1.5,247.8,0c-2.2,0-6.7,0-8.9,0c-81.4,1.5-146.6,70-146.6,152.1v44.4h-9.5
		c-14.6,0-26.5,15.1-26.5,33.7v222.6c0,18.6,11.9,33.8,26.5,33.8h321c14.6,0,26.5-15.2,26.5-33.8V230.3
		C430.4,211.6,418.5,196.6,403.9,196.6z M273.4,341.4v67.3c0,7.7-6.4,14.2-14.2,14.2h-31.8c-7.7,0-14.2-6.5-14.2-14.2v-67.3
		c-7.5-7.4-11.8-17.5-11.8-28.8c0-21.3,16.5-39.7,37.5-40.5c2.2-0.1,6.7-0.1,8.9,0c21,0.8,37.5,19.2,37.5,40.5
		C285.3,323.8,280.9,334,273.4,341.4z M331.9,196.6h-84.1h-8.9h-84.1v-44.4c0-48.9,39.7-89.3,88.5-89.3s88.5,40.4,88.5,89.3
		L331.9,196.6L331.9,196.6z"/>
</g>
<rect x="78.9" y="261" width="324.2" height="181"/>
<g>
	<path class="st0" d="M145.2,385.6c6.2,4,15.3,7.3,24.9,7.3c14.2,0,22.5-7.8,22.5-19.2c0-10.5-5.8-16.5-20.3-22.3
		c-17.6-6.5-28.4-16-28.4-31.8c0-17.5,13.9-30.5,34.8-30.5c11,0,19,2.7,23.8,5.5l-3.8,11.8c-3.5-2-10.7-5.3-20.5-5.3
		c-14.7,0-20.3,9.2-20.3,16.8c0,10.5,6.6,15.7,21.4,21.7c18.2,7.3,27.5,16.5,27.5,33c0,17.3-12.3,32.3-37.7,32.3
		c-10.4,0-21.7-3.2-27.5-7.2L145.2,385.6z"/>
	<path class="st0" d="M224,385.6c6.2,4,15.3,7.3,24.9,7.3c14.2,0,22.5-7.8,22.5-19.2c0-10.5-5.8-16.5-20.3-22.3
		c-17.6-6.5-28.4-16-28.4-31.8c0-17.5,13.9-30.5,34.8-30.5c11,0,19,2.7,23.8,5.5l-3.8,11.8c-3.5-2-10.7-5.3-20.5-5.3
		c-14.7,0-20.3,9.2-20.3,16.8c0,10.5,6.6,15.7,21.4,21.7c18.2,7.3,27.5,16.5,27.5,33c0,17.3-12.3,32.3-37.7,32.3
		c-10.4,0-21.7-3.2-27.5-7.2L224,385.6z"/>
	<path class="st0" d="M304.7,290.9h13.9v100.2h46v12.2h-59.9V290.9z"/>
</g>
</svg>
