<?xml version="1.0" encoding="utf-8"?>
<!-- Generator: Adobe Illustrator 24.1.2, SVG Export Plug-In . SVG Version: 6.00 Build 0)  -->
<svg version="1.1" id="Layer_1" xmlns="http://www.w3.org/2000/svg" xmlns:xlink="http://www.w3.org/1999/xlink" x="0px" y="0px"
	 viewBox="0 0 1139.9 206.3" style="enable-background:new 0 0 1139.9 206.3;" xml:space="preserve">
<style type="text/css">
	.st0{fill:#4DD0FF;}
	.st1{display:none;}
	.st2{display:inline;fill:#4DD0FF;stroke:#247993;stroke-miterlimit:10;}
</style>
<image style="display:none;overflow:visible;" width="1462" height="379" xlink:href="../Downloads/cropped-logor.jpg"  transform="matrix(1 0 0 1 -169.4307 -535.8525)">
</image>
<g>
	<path class="st0" d="M15.2,196.1C5.1,189.4,0,179.6,0,166.6c0-6.6,2.2-12,6.7-16.3c4.5-4.3,10.3-6.4,17.4-6.4
		c4.2,0.2,7.4,1.2,9.6,3.2c2.2,1.9,3.3,3.7,3.3,5.3c0,0.2-0.9,0.8-2.7,1.9c-1.8,1.1-3.5,2.7-4.9,4.9c-1.5,2.2-2.2,5.2-2.2,9
		c0,8.6,2.6,15.2,7.8,19.9c5.2,4.7,13.3,7,24.3,7c7.5,0,14.1-1.5,19.7-4.4c5.7-2.9,10-6.8,13-11.6c3-4.8,4.5-9.9,4.5-15.2
		c0-6.6-1.9-12.2-5.6-17c-3.7-4.8-8.4-8.7-13.8-11.9c-5.5-3.2-13-6.9-22.5-11.1c-11-4.9-19.8-9.4-26.6-13.4c-6.8-4-12.5-9.4-17.3-16
		c-4.8-6.7-7.1-14.9-7.1-24.8C3.6,53.7,9,41.8,19.9,34C30.7,26.1,45,22.2,62.8,22.2c13.9,0,26,2.9,36.3,8.8
		c10.3,5.9,15.5,14.4,15.5,25.8c0,6.6-2.2,12-6.7,16.3c-4.5,4.3-10.3,6.4-17.4,6.4c-4.2-0.2-7.4-1.2-9.6-3.2
		c-2.2-1.9-3.3-3.7-3.3-5.3c0-0.2,1.2-0.8,3.7-1.9c2.5-1.1,4.7-2.7,6.6-4.9c1.9-2.2,2.9-5.2,2.9-9c0-6.8-2.6-12.1-7.8-15.9
		c-5.2-3.8-11.8-5.8-19.9-5.8c-11.1,0-19.6,2.6-25.4,7.8c-5.8,5.2-8.6,11.6-8.6,19.3c0,6.4,1.7,11.7,5.2,16c3.5,4.3,9,8.5,16.7,12.7
		c6.2,3.3,13,6.6,20.3,9.9c11.7,5.3,21,10.1,27.8,14.5c6.9,4.4,12.6,10.1,17.3,17.3c4.7,7.1,7,16,7,26.6c0,9.1-2.9,17.4-8.6,24.8
		c-5.8,7.4-13.5,13.2-23.3,17.4c-9.8,4.2-20.5,6.3-32.2,6.3C40,206.1,25.4,202.8,15.2,196.1z"/>
	<path class="st0" d="M118.5,199.8c-0.8-1.1-1.2-2.4-1.2-3.8c0.2-2.4,0.7-3.8,1.6-4.2c0.9-0.5,2.6-0.7,4.9-0.7
		c4.7,0,8.1-0.8,10.1-2.5c2-1.6,3.2-3.6,3.4-5.8c0.3-2.2,0.4-5.7,0.4-10.4v-62.8c0-4.8-0.1-8.2-0.4-10.4c-0.3-2.2-1.4-4.1-3.4-5.8
		c-2-1.6-5.4-2.5-10.1-2.5c-2.2,0-3.8-0.3-4.9-1c-1.1-0.6-1.6-2.1-1.6-4.5c0-1.1,0.4-2.1,1.1-3.2c0.7-1,1.8-1.6,3.3-1.8
		c11.5-1.6,21.4-4,29.6-7.1c2.6-0.9,4.7-1.5,6.3-1.6h0.8c2.9,0,4.4,1.7,4.4,5.2v95.4c0,4.8,0.2,8.2,0.5,10.4
		c0.4,2.2,1.6,4.1,3.6,5.8c2,1.6,5.4,2.5,10.1,2.5h1.6c1.5,0,2.6,0.3,3.3,0.8c0.7,0.5,1.2,1.9,1.4,4.1c0,1.5-0.4,2.7-1.1,3.8
		c-0.7,1.1-1.8,1.6-3.3,1.6c-10.6-0.5-20.2-0.8-28.8-0.8c-8.2,0-17.7,0.3-28.5,0.8C120.4,201.4,119.4,200.9,118.5,199.8z M136,36.6
		c-3.5-3.2-5.2-7.2-5.2-11.9c0-4.2,2.1-7.9,6.3-11.2c4.2-3.3,9-4.9,14.3-4.9c4.6,0,8.3,1.6,11.2,4.8c2.9,3.2,4.4,7.3,4.4,12.2
		c0,4.4-1.7,8.1-5.2,11.2c-3.5,3.1-7.8,4.7-12.9,4.7C143.7,41.4,139.4,39.8,136,36.6z"/>
	<path class="st0" d="M172.8,199.8c-0.8-1.1-1.2-2.4-1.2-3.8c0.2-2.4,0.7-3.8,1.5-4.2c0.8-0.5,2.4-0.7,4.8-0.7
		c4.7,0,8.1-0.8,10.1-2.5c2-1.6,3.2-3.6,3.6-5.8c0.4-2.2,0.5-5.7,0.5-10.4V38.6c0-4.7-0.1-8.2-0.4-10.4c-0.3-2.2-1.4-4.1-3.4-5.8
		c-2-1.6-5.4-2.5-10.1-2.5c-2.2,0-3.8-0.3-4.9-1c-1.1-0.6-1.6-2.1-1.6-4.5c0-1.1,0.4-2.1,1.1-3.2c0.7-1,1.8-1.6,3.3-1.8
		c11.5-1.6,21.4-4,29.6-7.1c2.6-0.9,4.7-1.5,6.3-1.6h0.8c2.9,0,4.4,1.7,4.4,5.2v166.4c0,4.8,0.2,8.2,0.5,10.4
		c0.4,2.2,1.6,4.1,3.6,5.8c2,1.6,5.4,2.5,10.1,2.5h1.6c1.5,0,2.6,0.3,3.3,0.8c0.7,0.5,1.2,1.9,1.4,4.1c0,1.5-0.4,2.7-1.1,3.8
		c-0.7,1.1-1.8,1.6-3.3,1.6c-10.6-0.5-20.2-0.8-28.8-0.8c-8.2,0-17.7,0.3-28.5,0.8C174.7,201.4,173.6,200.9,172.8,199.8z"/>
	<path class="st0" d="M266.1,154.3c-0.7-1.8-3.2-8.4-7.5-19.7c-4.3-11.3-8.4-20.8-12.2-28.5c-3.1-7.1-6-12-8.8-14.7
		c-2.7-2.6-6.8-4.3-12.1-5.1c-0.5-0.2-1.6-0.4-3-0.5c-1.5-0.2-2.4-0.6-2.7-1.4c-0.4-0.7-0.5-2-0.5-3.8c0-2.2,0.6-3.6,1.8-4.1
		c1.2-0.5,2.6-0.9,4.4-1c1.7-0.1,2.9-0.1,3.4-0.1c11.1-0.5,19.9,1.1,26.3,4.8c6.4,3.7,11.7,10.3,15.9,19.6
		c0.2,0.4,3.7,9.1,10.7,26.3c8.4,21.4,14.4,35.9,18.1,43.6h0.8l27.1-71.8c0.9-3.1,1.4-5.3,1.4-6.6c0-2-0.9-3.4-2.7-4.1
		c-1.8-0.7-4.8-1.1-9-1.1h-1.6c-1.5,0-2.5-0.3-3.2-0.8c-0.6-0.5-1.1-1.9-1.2-4.1c0-1.3,0.3-2.5,1-3.7c0.6-1.2,1.6-1.8,2.9-1.8
		c10.4,0.5,19.3,0.8,26.6,0.8c2.9,0,8.6-0.2,17-0.5l5.8-0.3c1.3,0,2.3,0.6,3,1.8c0.7,1.2,1.1,2.4,1.1,3.7c-0.2,2.2-0.6,3.6-1.4,4.1
		c-0.7,0.5-1.8,0.8-3.3,0.8c-6.8,0-12,1.1-15.6,3.3c-3.7,2.2-6.8,6.5-9.3,12.9c-4.2,10.6-12.1,30.1-23.6,58.4
		c-11.5,28.3-17.5,42.6-17.8,42.8h-11.5C281.4,193.1,274.7,176.8,266.1,154.3z"/>
	<path class="st0" d="M376.5,195.1c-9.6-5.8-16.9-13.8-21.8-23.8c-4.9-10-7.4-21.2-7.4-33.4c0-10.8,2.5-21.1,7.5-31.1
		c5-10,12.2-18,21.5-24.3c9.3-6.2,20-9.3,32.1-9.3c16.3,0,28.8,4.2,37.6,12.5c8.8,8.3,13.8,19.5,15.1,33.6c0,6-1.6,10.1-4.9,12.3
		c-3.3,2.2-8,3.3-14.3,3.3h-66.6c0,17,3.5,30.5,10.6,40.4c7,10,18,14.9,32.8,14.9c7.9,0,14.5-1.7,20-5.1c5.5-3.4,10.7-9.1,15.6-17.1
		c0.9-0.9,1.8-1.4,2.7-1.4c1.3,0,2.4,0.4,3.3,1.1c1.8,1.1,2.7,2.7,2.7,4.9c0,1.1-0.2,1.9-0.5,2.5c-5.7,9.1-12.8,16.2-21.5,21.2
		c-8.7,5-18.5,7.5-29.5,7.5C397.7,203.9,386.1,201,376.5,195.1z M419.9,124.4c9.3,0,14.3-3.8,14.8-11.5c0-8.4-2.3-15.5-6.9-21.4
		c-4.6-5.8-11.1-8.8-19.5-8.8c-9.3,0-17,3.7-23,11.1c-6,7.4-9.4,17.6-10.1,30.6H419.9z"/>
	<path class="st0" d="M459.8,199.8c-0.8-1.1-1.2-2.4-1.2-3.8c0.2-2.4,0.7-3.8,1.6-4.2c0.9-0.5,2.6-0.7,4.9-0.7
		c4.7,0,8.1-0.8,10.1-2.5c2-1.6,3.2-3.6,3.4-5.8c0.3-2.2,0.4-5.7,0.4-10.4v-62.8c0-4.8-0.1-8.2-0.4-10.4c-0.3-2.2-1.4-4.1-3.4-5.8
		c-2-1.6-5.4-2.5-10.1-2.5c-2.2,0-3.8-0.3-4.9-1c-1.1-0.6-1.6-2.1-1.6-4.5c0-1.1,0.4-2.1,1.1-3.2c0.7-1,1.8-1.6,3.3-1.8
		c11.9-1.8,21.7-4.2,29.3-7.1c3.1-0.9,5.2-1.5,6.3-1.6h0.8c2.9,0,4.4,1.7,4.4,5.2v17h0.8c6.4-6.4,12.9-11.5,19.5-15.2
		c6.6-3.7,12.5-5.6,17.8-5.6c6,0,10.8,2.2,14.4,6.7c3.6,4.5,5.3,9.6,5.3,15.5c0,5.1-1.6,9.7-4.7,13.7c-3.1,4-7.4,6-12.9,6
		c-2.6,0-4.8-0.5-6.7-1.6c-1.9-1.1-3-2-3.2-2.7c0.2-0.4,1.1-1.5,2.7-3.4s2.5-4.2,2.5-6.7c0-3.3-0.9-5.9-2.6-7.9c-1.7-2-4.1-3-7-3
		c-3.1,0-7,1.5-11.8,4.5c-4.8,3-9.4,6.8-14,11.4v66.9c0,4.8,0.2,8.2,0.5,10.4c0.4,2.2,1.6,4.1,3.6,5.8c2,1.6,5.4,2.5,10.1,2.5h1.6
		c1.5,0,2.6,0.3,3.3,0.8c0.7,0.5,1.2,1.9,1.4,4.1c0,1.5-0.4,2.7-1.1,3.8c-0.7,1.1-1.8,1.6-3.3,1.6c-10.6-0.5-20.2-0.8-28.8-0.8
		c-8.2,0-17.7,0.3-28.5,0.8C461.7,201.4,460.6,200.9,459.8,199.8z"/>
	<path class="st0" d="M591.9,199.7c-0.8-1.2-1.2-2.6-1.2-4.2c0.2-2.7,0.7-4.4,1.6-4.9c0.9-0.5,2.6-0.8,5.2-0.8c5.3,0,9.2-1,11.8-2.9
		c2.6-1.9,4.2-4.3,4.8-7.1c0.6-2.8,1-6.5,1.2-11.1V59.7c-0.2-4.6-0.6-8.3-1.2-11.1c-0.6-2.8-2.2-5.2-4.8-7.1
		c-2.6-1.9-6.5-2.9-11.8-2.9h-1.6c-1.8,0-3.1-0.3-3.8-1c-0.7-0.6-1.2-2.2-1.4-4.8c0-1.6,0.4-3.1,1.2-4.2c0.8-1.2,2-1.8,3.4-1.8
		c11.9,0.5,22.8,0.8,32.6,0.8h79.2c4.8,0,7.1,2.2,7.1,6.6l0.8,38.4c0,1.6-0.8,3-2.5,4c-1.6,1-3.3,1.5-4.9,1.5
		c-2.2,0-4.2-0.4-5.9-1.2c-1.7-0.8-2.7-2.1-2.9-3.7c-1.3-9-2.8-15.8-4.5-20.4c-1.7-4.7-4.3-8.1-7.7-10.4c-3.4-2.3-8.2-3.5-14.4-3.7
		h-29.9v71.3h49.1c1.5,0.2,2.6,0.9,3.3,2.1c0.7,1.2,1.1,2.6,1.1,4.2c0,1.5-0.4,2.7-1.1,3.8c-0.7,1.1-1.8,1.6-3.3,1.6h-49.1v46.9
		c0.2,4.6,0.6,8.3,1.2,11.1c0.6,2.8,2.2,5.2,4.8,7.1c2.6,1.9,6.5,2.9,11.8,2.9h1.6c1.6,0,2.9,0.3,3.7,1c0.8,0.6,1.3,2.2,1.5,4.8
		c0,1.6-0.4,3.1-1.2,4.2c-0.8,1.2-2.1,1.8-3.7,1.8c-11.7-0.5-23-0.8-34-0.8c-10.1,0-21,0.3-32.9,0.8
		C593.9,201.4,592.7,200.8,591.9,199.7z"/>
	<path class="st0" d="M728.1,195.1c-9.6-5.8-16.9-13.8-21.8-23.8c-4.9-10-7.4-21.2-7.4-33.4c0-10.8,2.5-21.1,7.5-31.1
		c5-10,12.2-18,21.5-24.3c9.3-6.2,20-9.3,32.1-9.3c16.3,0,28.8,4.2,37.6,12.5c8.8,8.3,13.8,19.5,15.1,33.6c0,6-1.6,10.1-4.9,12.3
		c-3.3,2.2-8,3.3-14.3,3.3h-66.6c0,17,3.5,30.5,10.6,40.4c7,10,18,14.9,32.8,14.9c7.9,0,14.5-1.7,20-5.1c5.5-3.4,10.7-9.1,15.6-17.1
		c0.9-0.9,1.8-1.4,2.7-1.4c1.3,0,2.4,0.4,3.3,1.1c1.8,1.1,2.7,2.7,2.7,4.9c0,1.1-0.2,1.9-0.5,2.5c-5.7,9.1-12.8,16.2-21.5,21.2
		c-8.7,5-18.5,7.5-29.5,7.5C749.4,203.9,737.7,201,728.1,195.1z M771.6,124.4c9.3,0,14.3-3.8,14.8-11.5c0-8.4-2.3-15.5-6.9-21.4
		c-4.6-5.8-11.1-8.8-19.5-8.8c-9.3,0-17,3.7-23,11.1c-6,7.4-9.4,17.6-10.1,30.6H771.6z"/>
	<path class="st0" d="M843.1,154.3c-0.7-1.8-3.2-8.4-7.5-19.7c-4.3-11.3-8.4-20.8-12.2-28.5c-3.1-7.1-6-12-8.8-14.7
		c-2.7-2.6-6.8-4.3-12.1-5.1c-0.5-0.2-1.6-0.4-3-0.5c-1.5-0.2-2.4-0.6-2.7-1.4c-0.4-0.7-0.5-2-0.5-3.8c0-2.2,0.6-3.6,1.8-4.1
		c1.2-0.5,2.6-0.9,4.4-1c1.7-0.1,2.9-0.1,3.4-0.1c11.1-0.5,19.9,1.1,26.3,4.8c6.4,3.7,11.7,10.3,15.9,19.6
		c0.2,0.4,3.7,9.1,10.7,26.3c8.4,21.4,14.4,35.9,18.1,43.6h0.8l27.1-71.8c0.9-3.1,1.4-5.3,1.4-6.6c0-2-0.9-3.4-2.7-4.1
		c-1.8-0.7-4.8-1.1-9-1.1h-1.6c-1.5,0-2.5-0.3-3.2-0.8c-0.6-0.5-1.1-1.9-1.2-4.1c0-1.3,0.3-2.5,1-3.7c0.6-1.2,1.6-1.8,2.9-1.8
		c10.4,0.5,19.3,0.8,26.6,0.8c2.9,0,8.6-0.2,17-0.5l5.8-0.3c1.3,0,2.3,0.6,3,1.8c0.7,1.2,1.1,2.4,1.1,3.7c-0.2,2.2-0.6,3.6-1.4,4.1
		c-0.7,0.5-1.8,0.8-3.3,0.8c-6.8,0-12,1.1-15.6,3.3c-3.7,2.2-6.8,6.5-9.3,12.9c-4.2,10.6-12.1,30.1-23.6,58.4
		c-11.5,28.3-17.5,42.6-17.8,42.8h-11.5C858.4,193.1,851.7,176.8,843.1,154.3z"/>
	<path class="st0" d="M953.4,195.1c-9.6-5.8-16.9-13.8-21.8-23.8c-4.9-10-7.4-21.2-7.4-33.4c0-10.8,2.5-21.1,7.5-31.1
		c5-10,12.2-18,21.5-24.3c9.3-6.2,20-9.3,32.1-9.3c16.3,0,28.8,4.2,37.6,12.5c8.8,8.3,13.8,19.5,15.1,33.6c0,6-1.6,10.1-4.9,12.3
		c-3.3,2.2-8,3.3-14.3,3.3h-66.6c0,17,3.5,30.5,10.6,40.4c7,10,18,14.9,32.8,14.9c7.9,0,14.5-1.7,20-5.1c5.5-3.4,10.7-9.1,15.6-17.1
		c0.9-0.9,1.8-1.4,2.7-1.4c1.3,0,2.4,0.4,3.3,1.1c1.8,1.1,2.7,2.7,2.7,4.9c0,1.1-0.2,1.9-0.5,2.5c-5.7,9.1-12.8,16.2-21.5,21.2
		c-8.7,5-18.5,7.5-29.5,7.5C974.7,203.9,963,201,953.4,195.1z M996.9,124.4c9.3,0,14.3-3.8,14.8-11.5c0-8.4-2.3-15.5-6.9-21.4
		c-4.6-5.8-11.1-8.8-19.5-8.8c-9.3,0-17,3.7-23,11.1c-6,7.4-9.4,17.6-10.1,30.6H996.9z"/>
	<path class="st0" d="M1036.7,199.8c-0.8-1.1-1.2-2.4-1.2-3.8c0.2-2.4,0.7-3.8,1.6-4.2c0.9-0.5,2.6-0.7,4.9-0.7
		c4.8,0,8.1-0.8,10.1-2.5c2-1.6,3.2-3.6,3.4-5.8c0.3-2.2,0.4-5.7,0.4-10.4v-62.8c0-4.8-0.1-8.2-0.4-10.4c-0.3-2.2-1.4-4.1-3.4-5.8
		c-2-1.6-5.4-2.5-10.1-2.5c-2.2,0-3.8-0.3-4.9-1c-1.1-0.6-1.6-2.1-1.6-4.5c0-1.1,0.4-2.1,1.1-3.2c0.7-1,1.8-1.6,3.3-1.8
		c11.9-1.8,21.7-4.2,29.3-7.1c3.1-0.9,5.2-1.5,6.3-1.6h0.8c2.9,0,4.4,1.7,4.4,5.2v17h0.8c6.4-6.4,12.9-11.5,19.5-15.2
		c6.6-3.7,12.5-5.6,17.8-5.6c6,0,10.8,2.2,14.4,6.7c3.6,4.5,5.3,9.6,5.3,15.5c0,5.1-1.6,9.7-4.7,13.7c-3.1,4-7.4,6-12.9,6
		c-2.6,0-4.8-0.5-6.7-1.6c-1.9-1.1-3-2-3.2-2.7c0.2-0.4,1.1-1.5,2.7-3.4s2.5-4.2,2.5-6.7c0-3.3-0.9-5.9-2.6-7.9c-1.7-2-4.1-3-7-3
		c-3.1,0-7,1.5-11.8,4.5c-4.8,3-9.4,6.8-14,11.4v66.9c0,4.8,0.2,8.2,0.5,10.4c0.4,2.2,1.5,4.1,3.6,5.8c2,1.6,5.4,2.5,10.1,2.5h1.6
		c1.5,0,2.6,0.3,3.3,0.8c0.7,0.5,1.2,1.9,1.4,4.1c0,1.5-0.4,2.7-1.1,3.8c-0.7,1.1-1.8,1.6-3.3,1.6c-10.6-0.5-20.2-0.8-28.8-0.8
		c-8.2,0-17.7,0.3-28.5,0.8C1038.6,201.4,1037.6,200.9,1036.7,199.8z"/>
</g>
<g class="st1">
	<path class="st2" d="M16,195.8c-10.1-6.7-15.2-16.5-15.2-29.5c0-6.6,2.2-12,6.7-16.3c4.5-4.3,10.3-6.4,17.4-6.4
		c4.2,0.2,7.4,1.2,9.6,3.2c2.2,1.9,3.3,3.7,3.3,5.3c0,0.2-0.9,0.8-2.7,1.9c-1.8,1.1-3.5,2.7-4.9,4.9c-1.5,2.2-2.2,5.2-2.2,9
		c0,8.6,2.6,15.2,7.8,19.9c5.2,4.7,13.3,7,24.3,7c7.5,0,14.1-1.5,19.7-4.4c5.7-2.9,10-6.8,13-11.6c3-4.8,4.5-9.9,4.5-15.2
		c0-6.6-1.9-12.2-5.6-17c-3.7-4.8-8.4-8.7-13.8-11.9c-5.5-3.2-13-6.9-22.5-11.1c-11-4.9-19.8-9.4-26.6-13.4c-6.8-4-12.5-9.4-17.3-16
		c-4.8-6.7-7.1-14.9-7.1-24.8c0-15.9,5.4-27.8,16.3-35.6c10.9-7.9,25.2-11.8,42.9-11.8c13.9,0,26,2.9,36.3,8.8
		c10.3,5.9,15.5,14.4,15.5,25.8c0,6.6-2.2,12-6.7,16.3c-4.5,4.3-10.3,6.4-17.4,6.4C87,79,83.8,77.9,81.6,76
		c-2.2-1.9-3.3-3.7-3.3-5.3c0-0.2,1.2-0.8,3.7-1.9c2.5-1.1,4.7-2.7,6.6-4.9c1.9-2.2,2.9-5.2,2.9-9c0-6.8-2.6-12.1-7.8-15.9
		c-5.2-3.8-11.8-5.8-19.9-5.8c-11.1,0-19.6,2.6-25.4,7.8c-5.8,5.2-8.6,11.6-8.6,19.3c0,6.4,1.7,11.7,5.2,16c3.5,4.3,9,8.5,16.7,12.7
		c6.2,3.3,13,6.6,20.3,9.9c11.7,5.3,21,10.1,27.8,14.5c6.9,4.4,12.6,10.1,17.3,17.3c4.7,7.1,7,16,7,26.6c0,9.1-2.9,17.4-8.6,24.8
		c-5.8,7.4-13.5,13.2-23.3,17.4c-9.8,4.2-20.5,6.3-32.2,6.3C40.8,205.8,26.1,202.5,16,195.8z"/>
	<path class="st2" d="M119.3,199.5c-0.8-1.1-1.2-2.4-1.2-3.8c0.2-2.4,0.7-3.8,1.6-4.2c0.9-0.5,2.6-0.7,4.9-0.7
		c4.7,0,8.1-0.8,10.1-2.5c2-1.6,3.2-3.6,3.4-5.8c0.3-2.2,0.4-5.7,0.4-10.4v-62.8c0-4.8-0.1-8.2-0.4-10.4c-0.3-2.2-1.4-4.1-3.4-5.8
		c-2-1.6-5.4-2.5-10.1-2.5c-2.2,0-3.8-0.3-4.9-1c-1.1-0.6-1.6-2.1-1.6-4.5c0-1.1,0.4-2.1,1.1-3.2c0.7-1,1.8-1.6,3.3-1.8
		c11.5-1.6,21.4-4,29.6-7.1c2.6-0.9,4.7-1.5,6.3-1.6h0.8c2.9,0,4.4,1.7,4.4,5.2v95.4c0,4.8,0.2,8.2,0.5,10.4
		c0.4,2.2,1.6,4.1,3.6,5.8c2,1.6,5.4,2.5,10.1,2.5h1.6c1.5,0,2.6,0.3,3.3,0.8c0.7,0.5,1.2,1.9,1.4,4.1c0,1.5-0.4,2.7-1.1,3.8
		c-0.7,1.1-1.8,1.6-3.3,1.6c-10.6-0.5-20.2-0.8-28.8-0.8c-8.2,0-17.7,0.3-28.5,0.8C121.2,201.1,120.2,200.6,119.3,199.5z
		 M136.7,36.3c-3.5-3.2-5.2-7.2-5.2-11.9c0-4.2,2.1-7.9,6.3-11.2c4.2-3.3,9-4.9,14.3-4.9c4.6,0,8.3,1.6,11.2,4.8
		c2.9,3.2,4.4,7.3,4.4,12.2c0,4.4-1.7,8.1-5.2,11.2c-3.5,3.1-7.8,4.7-12.9,4.7C144.5,41.1,140.2,39.5,136.7,36.3z"/>
	<path class="st2" d="M173.6,199.5c-0.8-1.1-1.2-2.4-1.2-3.8c0.2-2.4,0.7-3.8,1.5-4.2c0.8-0.5,2.4-0.7,4.8-0.7
		c4.7,0,8.1-0.8,10.1-2.5c2-1.6,3.2-3.6,3.6-5.8c0.4-2.2,0.5-5.7,0.5-10.4V38.3c0-4.7-0.1-8.2-0.4-10.4c-0.3-2.2-1.4-4.1-3.4-5.8
		c-2-1.6-5.4-2.5-10.1-2.5c-2.2,0-3.8-0.3-4.9-1c-1.1-0.6-1.6-2.1-1.6-4.5c0-1.1,0.4-2.1,1.1-3.2c0.7-1,1.8-1.6,3.3-1.8
		c11.5-1.6,21.4-4,29.6-7.1c2.6-0.9,4.7-1.5,6.3-1.6h0.8c2.9,0,4.4,1.7,4.4,5.2v166.4c0,4.8,0.2,8.2,0.5,10.4
		c0.4,2.2,1.6,4.1,3.6,5.8c2,1.6,5.4,2.5,10.1,2.5h1.6c1.5,0,2.6,0.3,3.3,0.8c0.7,0.5,1.2,1.9,1.4,4.1c0,1.5-0.4,2.7-1.1,3.8
		c-0.7,1.1-1.8,1.6-3.3,1.6c-10.6-0.5-20.2-0.8-28.8-0.8c-8.2,0-17.7,0.3-28.5,0.8C175.5,201.1,174.4,200.6,173.6,199.5z"/>
	<path class="st2" d="M266.9,154c-0.7-1.8-3.2-8.4-7.5-19.7c-4.3-11.3-8.4-20.8-12.2-28.5c-3.1-7.1-6-12-8.8-14.7
		c-2.7-2.6-6.8-4.3-12.1-5.1c-0.5-0.2-1.6-0.4-3-0.5c-1.5-0.2-2.4-0.6-2.7-1.4c-0.4-0.7-0.5-2-0.5-3.8c0-2.2,0.6-3.6,1.8-4.1
		c1.2-0.5,2.6-0.9,4.4-1c1.7-0.1,2.9-0.1,3.4-0.1c11.1-0.5,19.9,1.1,26.3,4.8c6.4,3.7,11.7,10.3,15.9,19.6
		c0.2,0.4,3.7,9.1,10.7,26.3c8.4,21.4,14.4,35.9,18.1,43.6h0.8l27.1-71.8c0.9-3.1,1.4-5.3,1.4-6.6c0-2-0.9-3.4-2.7-4.1
		c-1.8-0.7-4.8-1.1-9-1.1h-1.6c-1.5,0-2.5-0.3-3.2-0.8c-0.6-0.5-1.1-1.9-1.2-4.1c0-1.3,0.3-2.5,1-3.7c0.6-1.2,1.6-1.8,2.9-1.8
		c10.4,0.5,19.3,0.8,26.6,0.8c2.9,0,8.6-0.2,17-0.5l5.8-0.3c1.3,0,2.3,0.6,3,1.8c0.7,1.2,1.1,2.4,1.1,3.7c-0.2,2.2-0.6,3.6-1.4,4.1
		c-0.7,0.5-1.8,0.8-3.3,0.8c-6.8,0-12,1.1-15.6,3.3c-3.7,2.2-6.8,6.5-9.3,12.9c-4.2,10.6-12.1,30.1-23.6,58.4
		c-11.5,28.3-17.5,42.6-17.8,42.8h-11.5C282.2,192.8,275.5,176.5,266.9,154z"/>
	<path class="st2" d="M377.2,194.8c-9.6-5.8-16.9-13.8-21.8-23.8c-4.9-10-7.4-21.2-7.4-33.4c0-10.8,2.5-21.1,7.5-31.1
		c5-10,12.2-18,21.5-24.3c9.3-6.2,20-9.3,32.1-9.3c16.3,0,28.8,4.2,37.6,12.5c8.8,8.3,13.8,19.5,15.1,33.6c0,6-1.6,10.1-4.9,12.3
		c-3.3,2.2-8,3.3-14.3,3.3H376c0,17,3.5,30.5,10.6,40.4c7,10,18,14.9,32.8,14.9c7.9,0,14.5-1.7,20-5.1c5.5-3.4,10.7-9.1,15.6-17.1
		c0.9-0.9,1.8-1.4,2.7-1.4c1.3,0,2.4,0.4,3.3,1.1c1.8,1.1,2.7,2.7,2.7,4.9c0,1.1-0.2,1.9-0.5,2.5c-5.7,9.1-12.8,16.2-21.5,21.2
		c-8.7,5-18.5,7.5-29.5,7.5C398.5,203.6,386.8,200.7,377.2,194.8z M420.7,124.1c9.3,0,14.3-3.8,14.8-11.5c0-8.4-2.3-15.5-6.9-21.4
		c-4.6-5.8-11.1-8.8-19.5-8.8c-9.3,0-17,3.7-23,11.1c-6,7.4-9.4,17.6-10.1,30.6H420.7z"/>
	<path class="st2" d="M460.6,199.5c-0.8-1.1-1.2-2.4-1.2-3.8c0.2-2.4,0.7-3.8,1.6-4.2c0.9-0.5,2.6-0.7,4.9-0.7
		c4.7,0,8.1-0.8,10.1-2.5c2-1.6,3.2-3.6,3.4-5.8c0.3-2.2,0.4-5.7,0.4-10.4v-62.8c0-4.8-0.1-8.2-0.4-10.4c-0.3-2.2-1.4-4.1-3.4-5.8
		c-2-1.6-5.4-2.5-10.1-2.5c-2.2,0-3.8-0.3-4.9-1c-1.1-0.6-1.6-2.1-1.6-4.5c0-1.1,0.4-2.1,1.1-3.2c0.7-1,1.8-1.6,3.3-1.8
		c11.9-1.8,21.7-4.2,29.3-7.1c3.1-0.9,5.2-1.5,6.3-1.6h0.8c2.9,0,4.4,1.7,4.4,5.2v17h0.8c6.4-6.4,12.9-11.5,19.5-15.2
		c6.6-3.7,12.5-5.6,17.8-5.6c6,0,10.8,2.2,14.4,6.7c3.6,4.5,5.3,9.6,5.3,15.5c0,5.1-1.6,9.7-4.7,13.7c-3.1,4-7.4,6-12.9,6
		c-2.6,0-4.8-0.5-6.7-1.6c-1.9-1.1-3-2-3.2-2.7c0.2-0.4,1.1-1.5,2.7-3.4s2.5-4.2,2.5-6.7c0-3.3-0.9-5.9-2.6-7.9c-1.7-2-4.1-3-7-3
		c-3.1,0-7,1.5-11.8,4.5c-4.8,3-9.4,6.8-14,11.4v66.9c0,4.8,0.2,8.2,0.5,10.4c0.4,2.2,1.6,4.1,3.6,5.8c2,1.6,5.4,2.5,10.1,2.5h1.6
		c1.5,0,2.6,0.3,3.3,0.8c0.7,0.5,1.2,1.9,1.4,4.1c0,1.5-0.4,2.7-1.1,3.8c-0.7,1.1-1.8,1.6-3.3,1.6c-10.6-0.5-20.2-0.8-28.8-0.8
		c-8.2,0-17.7,0.3-28.5,0.8C462.4,201.1,461.4,200.6,460.6,199.5z"/>
	<path class="st2" d="M592.7,199.4c-0.8-1.2-1.2-2.6-1.2-4.2c0.2-2.7,0.7-4.4,1.6-4.9c0.9-0.5,2.6-0.8,5.2-0.8c5.3,0,9.2-1,11.8-2.9
		c2.6-1.9,4.2-4.3,4.8-7.1c0.6-2.8,1-6.5,1.2-11.1V59.4c-0.2-4.6-0.6-8.3-1.2-11.1c-0.6-2.8-2.2-5.2-4.8-7.1
		c-2.6-1.9-6.5-2.9-11.8-2.9h-1.6c-1.8,0-3.1-0.3-3.8-1c-0.7-0.6-1.2-2.2-1.4-4.8c0-1.6,0.4-3.1,1.2-4.2c0.8-1.2,2-1.8,3.4-1.8
		c11.9,0.5,22.8,0.8,32.6,0.8h79.2c4.8,0,7.1,2.2,7.1,6.6l0.8,38.4c0,1.6-0.8,3-2.5,4c-1.6,1-3.3,1.5-4.9,1.5
		c-2.2,0-4.2-0.4-5.9-1.2c-1.7-0.8-2.7-2.1-2.9-3.7c-1.3-9-2.8-15.8-4.5-20.4c-1.7-4.7-4.3-8.1-7.7-10.4c-3.4-2.3-8.2-3.5-14.4-3.7
		h-29.9v71.3h49.1c1.5,0.2,2.6,0.9,3.3,2.1c0.7,1.2,1.1,2.6,1.1,4.2c0,1.5-0.4,2.7-1.1,3.8c-0.7,1.1-1.8,1.6-3.3,1.6h-49.1v46.9
		c0.2,4.6,0.6,8.3,1.2,11.1c0.6,2.8,2.2,5.2,4.8,7.1c2.6,1.9,6.5,2.9,11.8,2.9h1.6c1.6,0,2.9,0.3,3.7,1c0.8,0.6,1.3,2.2,1.5,4.8
		c0,1.6-0.4,3.1-1.2,4.2c-0.8,1.2-2.1,1.8-3.7,1.8c-11.7-0.5-23-0.8-34-0.8c-10.1,0-21,0.3-32.9,0.8
		C594.6,201.1,593.5,200.5,592.7,199.4z"/>
	<path class="st2" d="M728.9,194.8C719.3,189,712,181,707.1,171c-4.9-10-7.4-21.2-7.4-33.4c0-10.8,2.5-21.1,7.5-31.1
		c5-10,12.2-18,21.5-24.3c9.3-6.2,20-9.3,32.1-9.3c16.3,0,28.8,4.2,37.6,12.5c8.8,8.3,13.8,19.5,15.1,33.6c0,6-1.6,10.1-4.9,12.3
		c-3.3,2.2-8,3.3-14.3,3.3h-66.6c0,17,3.5,30.5,10.6,40.4c7,10,18,14.9,32.8,14.9c7.9,0,14.5-1.7,20-5.1c5.5-3.4,10.7-9.1,15.6-17.1
		c0.9-0.9,1.8-1.4,2.7-1.4c1.3,0,2.4,0.4,3.3,1.1c1.8,1.1,2.7,2.7,2.7,4.9c0,1.1-0.2,1.9-0.5,2.5c-5.7,9.1-12.8,16.2-21.5,21.2
		c-8.7,5-18.5,7.5-29.5,7.5C750.1,203.6,738.5,200.7,728.9,194.8z M772.3,124.1c9.3,0,14.3-3.8,14.8-11.5c0-8.4-2.3-15.5-6.9-21.4
		c-4.6-5.8-11.1-8.8-19.5-8.8c-9.3,0-17,3.7-23,11.1c-6,7.4-9.4,17.6-10.1,30.6H772.3z"/>
	<path class="st2" d="M843.9,154c-0.7-1.8-3.2-8.4-7.5-19.7c-4.3-11.3-8.4-20.8-12.2-28.5c-3.1-7.1-6-12-8.8-14.7
		c-2.7-2.6-6.8-4.3-12.1-5.1c-0.5-0.2-1.6-0.4-3-0.5c-1.5-0.2-2.4-0.6-2.7-1.4c-0.4-0.7-0.5-2-0.5-3.8c0-2.2,0.6-3.6,1.8-4.1
		c1.2-0.5,2.6-0.9,4.4-1c1.7-0.1,2.9-0.1,3.4-0.1c11.1-0.5,19.9,1.1,26.3,4.8c6.4,3.7,11.7,10.3,15.9,19.6
		c0.2,0.4,3.7,9.1,10.7,26.3c8.4,21.4,14.4,35.9,18.1,43.6h0.8l27.1-71.8c0.9-3.1,1.4-5.3,1.4-6.6c0-2-0.9-3.4-2.7-4.1
		c-1.8-0.7-4.8-1.1-9-1.1h-1.6c-1.5,0-2.5-0.3-3.2-0.8c-0.6-0.5-1.1-1.9-1.2-4.1c0-1.3,0.3-2.5,1-3.7c0.6-1.2,1.6-1.8,2.9-1.8
		c10.4,0.5,19.3,0.8,26.6,0.8c2.9,0,8.6-0.2,17-0.5l5.8-0.3c1.3,0,2.3,0.6,3,1.8c0.7,1.2,1.1,2.4,1.1,3.7c-0.2,2.2-0.6,3.6-1.4,4.1
		c-0.7,0.5-1.8,0.8-3.3,0.8c-6.8,0-12,1.1-15.6,3.3c-3.7,2.2-6.8,6.5-9.3,12.9c-4.2,10.6-12.1,30.1-23.6,58.4
		c-11.5,28.3-17.5,42.6-17.8,42.8h-11.5C859.1,192.8,852.5,176.5,843.9,154z"/>
	<path class="st2" d="M954.2,194.8c-9.6-5.8-16.9-13.8-21.8-23.8c-4.9-10-7.4-21.2-7.4-33.4c0-10.8,2.5-21.1,7.5-31.1
		c5-10,12.2-18,21.5-24.3c9.3-6.2,20-9.3,32.1-9.3c16.3,0,28.8,4.2,37.6,12.5c8.8,8.3,13.8,19.5,15.1,33.6c0,6-1.6,10.1-4.9,12.3
		c-3.3,2.2-8,3.3-14.3,3.3H953c0,17,3.5,30.5,10.6,40.4c7,10,18,14.9,32.8,14.9c7.9,0,14.5-1.7,20-5.1c5.5-3.4,10.7-9.1,15.6-17.1
		c0.9-0.9,1.8-1.4,2.7-1.4c1.3,0,2.4,0.4,3.3,1.1c1.8,1.1,2.7,2.7,2.7,4.9c0,1.1-0.2,1.9-0.5,2.5c-5.7,9.1-12.8,16.2-21.5,21.2
		c-8.7,5-18.5,7.5-29.5,7.5C975.4,203.6,963.8,200.7,954.2,194.8z M997.6,124.1c9.3,0,14.3-3.8,14.8-11.5c0-8.4-2.3-15.5-6.9-21.4
		c-4.6-5.8-11.1-8.8-19.5-8.8c-9.3,0-17,3.7-23,11.1c-6,7.4-9.4,17.6-10.1,30.6H997.6z"/>
	<path class="st2" d="M1037.5,199.5c-0.8-1.1-1.2-2.4-1.2-3.8c0.2-2.4,0.7-3.8,1.6-4.2c0.9-0.5,2.6-0.7,4.9-0.7
		c4.8,0,8.1-0.8,10.1-2.5c2-1.6,3.2-3.6,3.4-5.8c0.3-2.2,0.4-5.7,0.4-10.4v-62.8c0-4.8-0.1-8.2-0.4-10.4c-0.3-2.2-1.4-4.1-3.4-5.8
		c-2-1.6-5.4-2.5-10.1-2.5c-2.2,0-3.8-0.3-4.9-1c-1.1-0.6-1.6-2.1-1.6-4.5c0-1.1,0.4-2.1,1.1-3.2c0.7-1,1.8-1.6,3.3-1.8
		c11.9-1.8,21.7-4.2,29.3-7.1c3.1-0.9,5.2-1.5,6.3-1.6h0.8c2.9,0,4.4,1.7,4.4,5.2v17h0.8c6.4-6.4,12.9-11.5,19.5-15.2
		c6.6-3.7,12.5-5.6,17.8-5.6c6,0,10.8,2.2,14.4,6.7c3.6,4.5,5.3,9.6,5.3,15.5c0,5.1-1.6,9.7-4.7,13.7c-3.1,4-7.4,6-12.9,6
		c-2.6,0-4.8-0.5-6.7-1.6c-1.9-1.1-3-2-3.2-2.7c0.2-0.4,1.1-1.5,2.7-3.4s2.5-4.2,2.5-6.7c0-3.3-0.9-5.9-2.6-7.9c-1.7-2-4.1-3-7-3
		c-3.1,0-7,1.5-11.8,4.5c-4.8,3-9.4,6.8-14,11.4v66.9c0,4.8,0.2,8.2,0.5,10.4c0.4,2.2,1.5,4.1,3.6,5.8c2,1.6,5.4,2.5,10.1,2.5h1.6
		c1.5,0,2.6,0.3,3.3,0.8c0.7,0.5,1.2,1.9,1.4,4.1c0,1.5-0.4,2.7-1.1,3.8c-0.7,1.1-1.8,1.6-3.3,1.6c-10.6-0.5-20.2-0.8-28.8-0.8
		c-8.2,0-17.7,0.3-28.5,0.8C1039.4,201.1,1038.4,200.6,1037.5,199.5z"/>
</g>
</svg>
